<?xml version="1.0" encoding="UTF-8" standalone="no"?>
<svg width="220px" height="57px" viewBox="0 0 220 57" version="1.1" xmlns="http://www.w3.org/2000/svg" xmlns:xlink="http://www.w3.org/1999/xlink" xmlns:sketch="http://www.bohemiancoding.com/sketch/ns">
    <!-- Generator: Sketch 3.1.1 (8761) - http://www.bohemiancoding.com/sketch -->
    <title>Donate with PayPal</title>
    <desc>Created with Sketch.</desc>
    <defs></defs>
    <g id="Page-1" stroke="none" stroke-width="1" fill="none" fill-rule="evenodd" sketch:type="MSPage">
        <g id="site" sketch:type="MSArtboardGroup" transform="translate(-1282.000000, -919.000000)">
            <g id="Container" sketch:type="MSLayerGroup" transform="translate(-57.000000, 324.000000)">
                <g id="Right" transform="translate(919.000000, 131.000000)">
                    <g id="Donate" transform="translate(0.000000, 442.000000)">
                        <g id="Donate-with-PayPal" transform="translate(420.000000, 19.000000)">
                            <g id="Logo" transform="translate(0.000000, 6.000000)" sketch:type="MSShapeGroup">
                                <path d="M81.9872581,11.9232333 L69.8535484,11.9232333 C69.0232258,11.9232333 68.3170968,12.5239 68.1875806,13.3401 L63.2801613,44.3221333 C63.1825806,44.9334 63.6580645,45.4846 64.2808065,45.4846 L70.0735484,45.4846 C70.903871,45.4846 71.61,44.8839333 71.7395161,44.0659667 L73.0630645,35.7096333 C73.1908065,34.8916667 73.8987097,34.291 74.7272581,34.291 L78.5683871,34.291 C86.561129,34.291 91.1740323,30.4396667 92.3787097,22.8076667 C92.9216129,19.4686667 92.4017742,16.8451667 90.8316129,15.0078333 C89.1070968,12.9903 86.0483871,11.9232333 81.9872581,11.9232333 L81.9872581,11.9232333 Z M83.3870968,23.2387333 C82.7235484,27.5741333 79.3969355,27.5741333 76.1803226,27.5741333 L74.3493548,27.5741333 L75.633871,19.4775 C75.7101613,18.9881333 76.1359677,18.6277333 76.6327419,18.6277333 L77.4719355,18.6277333 C79.6630645,18.6277333 81.73,18.6277333 82.7980645,19.8714667 C83.435,20.6134667 83.6301613,21.7158667 83.3870968,23.2387333 L83.3870968,23.2387333 Z" id="Shape" fill="#253B80"></path>
                                <path d="M118.257097,23.0991667 L112.446613,23.0991667 C111.951613,23.0991667 111.524032,23.4595667 111.447742,23.9489333 L111.190484,25.5672 L110.784194,24.9806667 C109.52629,23.1627667 106.72129,22.5550333 103.921613,22.5550333 C97.5008065,22.5550333 92.0167742,27.3974667 90.9487097,34.1903 C90.3933871,37.5787667 91.1829032,40.8188333 93.1132258,43.0784 C94.883871,45.156 97.4174194,46.0216667 100.431774,46.0216667 C105.605323,46.0216667 108.474194,42.7091667 108.474194,42.7091667 L108.215161,44.3168333 C108.117581,44.9316333 108.593065,45.4828333 109.212258,45.4828333 L114.446129,45.4828333 C115.278226,45.4828333 115.980806,44.8821667 116.112097,44.0642 L119.252419,24.2616333 C119.351774,23.6521333 118.878065,23.0991667 118.257097,23.0991667 L118.257097,23.0991667 Z M110.157903,34.3599 C109.597258,37.6653333 106.962581,39.8842667 103.602258,39.8842667 C101.915,39.8842667 100.566613,39.3454333 99.7008065,38.3243 C98.8420968,37.3102333 98.5156452,35.8668667 98.788871,34.2592 C99.3122581,30.9820333 101.99129,28.6906667 105.300161,28.6906667 C106.950161,28.6906667 108.291452,29.2365667 109.175,30.2665333 C110.060323,31.3071 110.411613,32.7593 110.157903,34.3599 L110.157903,34.3599 Z" id="Shape" fill="#253B80"></path>
                                <path d="M149.202581,23.0991667 L143.36371,23.0991667 C142.806613,23.0991667 142.283226,23.3747667 141.967419,23.8358667 L133.914355,35.6478 L130.500806,24.2969667 C130.286129,23.5867667 129.627903,23.0991667 128.882742,23.0991667 L123.145,23.0991667 C122.447742,23.0991667 121.963387,23.7775667 122.185161,24.4312333 L128.616613,43.2250333 L122.570161,51.7244667 C122.094677,52.3940333 122.57371,53.3144667 123.395161,53.3144667 L129.226935,53.3144667 C129.780484,53.3144667 130.298548,53.0459333 130.612581,52.5936667 L150.032903,24.6803333 C150.497742,24.0125333 150.020484,23.0991667 149.202581,23.0991667 L149.202581,23.0991667 Z" id="Shape" fill="#253B80"></path>
                                <path d="M168.534194,11.9232333 L156.39871,11.9232333 C155.570161,11.9232333 154.864032,12.5239 154.734516,13.3401 L149.827097,44.3221333 C149.729516,44.9334 150.205,45.4846 150.824194,45.4846 L157.051613,45.4846 C157.63,45.4846 158.125,45.0641333 158.215484,44.4917333 L159.608226,35.7096333 C159.735968,34.8916667 160.443871,34.291 161.272419,34.291 L165.111774,34.291 C173.10629,34.291 177.717419,30.4396667 178.923871,22.8076667 C179.468548,19.4686667 178.945161,16.8451667 177.375,15.0078333 C175.652258,12.9903 172.595323,11.9232333 168.534194,11.9232333 L168.534194,11.9232333 Z M169.934032,23.2387333 C169.272258,27.5741333 165.945645,27.5741333 162.727258,27.5741333 L160.898065,27.5741333 L162.184355,19.4775 C162.260645,18.9881333 162.682903,18.6277333 163.181452,18.6277333 L164.020645,18.6277333 C166.21,18.6277333 168.27871,18.6277333 169.346774,19.8714667 C169.98371,20.6134667 170.177097,21.7158667 169.934032,23.2387333 L169.934032,23.2387333 Z" id="Shape" fill="#179BD7"></path>
                                <path d="M204.802258,23.0991667 L198.995323,23.0991667 C198.496774,23.0991667 198.072742,23.4595667 197.998226,23.9489333 L197.740968,25.5672 L197.332903,24.9806667 C196.075,23.1627667 193.271774,22.5550333 190.472097,22.5550333 C184.05129,22.5550333 178.569032,27.3974667 177.500968,34.1903 C176.947419,37.5787667 177.733387,40.8188333 179.66371,43.0784 C181.437903,45.156 183.967903,46.0216667 186.982258,46.0216667 C192.155806,46.0216667 195.024677,42.7091667 195.024677,42.7091667 L194.765645,44.3168333 C194.668065,44.9316333 195.143548,45.4828333 195.76629,45.4828333 L200.998387,45.4828333 C201.826935,45.4828333 202.533065,44.8821667 202.662581,44.0642 L205.804677,24.2616333 C205.900484,23.6521333 205.425,23.0991667 204.802258,23.0991667 L204.802258,23.0991667 Z M196.703065,34.3599 C196.145968,37.6653333 193.507742,39.8842667 190.147419,39.8842667 C188.46371,39.8842667 187.111774,39.3454333 186.245968,38.3243 C185.387258,37.3102333 185.064355,35.8668667 185.334032,34.2592 C185.860968,30.9820333 188.536452,28.6906667 191.845323,28.6906667 C193.495323,28.6906667 194.836613,29.2365667 195.720161,30.2665333 C196.609032,31.3071 196.960323,32.7593 196.703065,34.3599 L196.703065,34.3599 Z" id="Shape" fill="#179BD7"></path>
                                <path d="M211.652419,12.773 L206.672258,44.3221333 C206.574677,44.9334 207.050161,45.4846 207.669355,45.4846 L212.676129,45.4846 C213.508226,45.4846 214.214355,44.8839333 214.342097,44.0659667 L219.253065,13.0857 C219.350645,12.4744333 218.875161,11.9214667 218.255968,11.9214667 L212.649516,11.9214667 C212.154516,11.9232333 211.72871,12.2836333 211.652419,12.773 L211.652419,12.773 Z" id="Shape" fill="#179BD7"></path>
                                <path d="M12.8912903,51.5054 L13.8191935,45.6365333 L11.7522581,45.5888333 L1.88241935,45.5888333 L8.74145161,2.28253333 C8.76274194,2.1518 8.83193548,2.0299 8.93306452,1.94333333 C9.03419355,1.85676667 9.16370968,1.80906667 9.29854839,1.80906667 L25.9404839,1.80906667 C31.4653226,1.80906667 35.2780645,2.95386667 37.2687097,5.21343333 C38.2019355,6.27343333 38.7962903,7.38113333 39.0837097,8.60013333 C39.3853226,9.8792 39.3906452,11.4073667 39.096129,13.2712 L39.0748387,13.4072333 L39.0748387,14.6015 L40.0080645,15.1279667 C40.7940323,15.5431333 41.4185484,16.0183667 41.8975806,16.5625 C42.6959677,17.4688 43.2122581,18.6206667 43.4304839,19.9863 C43.6558065,21.3908 43.5812903,23.0620667 43.2122581,24.9541667 C42.7864516,27.1307 42.0980645,29.0263333 41.1683871,30.5774667 C40.3132258,32.0067 39.223871,33.1921333 37.9304839,34.1108 C36.6956452,34.9835333 35.2283871,35.6460333 33.5695161,36.0700333 C31.9620968,36.4869667 30.1293548,36.6972 28.1191935,36.6972 L26.8240323,36.6972 C25.8979032,36.6972 24.9983871,37.0293333 24.2922581,37.6247 C23.5843548,38.2324333 23.1159677,39.0627667 22.9722581,39.9708333 L22.8746774,40.4990667 L21.2353226,50.8429 L21.1608065,51.2227333 C21.1412903,51.3428667 21.1075806,51.4029333 21.0579032,51.4435667 C21.0135484,51.4806667 20.9496774,51.5054 20.8875806,51.5054 L12.8912903,51.5054 L12.8912903,51.5054 Z" id="Shape" fill="#253B80"></path>
                                <path d="M40.8916129,13.5450333 L40.8916129,13.5450333 C40.8419355,13.8612667 40.7851613,14.1845667 40.7212903,14.5167 C38.5266129,25.7368 31.0182258,29.6128667 21.4287097,29.6128667 L16.546129,29.6128667 C15.3733871,29.6128667 14.3851613,30.4608667 14.2024194,31.6127333 L14.2024194,31.6127333 L11.7025806,47.3996667 L10.9946774,51.8746333 C10.8758065,52.6307667 11.4612903,53.3127 12.2277419,53.3127 L20.8875806,53.3127 C21.9130645,53.3127 22.7841935,52.5707 22.9456452,51.5637 L23.0308065,51.1255667 L24.6612903,40.8223667 L24.7659677,40.2570333 C24.9256452,39.2465 25.7985484,38.5045 26.8240323,38.5045 L28.1191935,38.5045 C36.5093548,38.5045 43.0774194,35.1125 44.9970968,25.2969 C45.7990323,21.1964667 45.383871,17.7726667 43.2619355,15.3647 C42.6196774,14.6386 41.8230645,14.0361667 40.8916129,13.5450333 L40.8916129,13.5450333 Z" id="Shape" fill="#179BD7"></path>
                                <path d="M38.5958065,12.6334333 C38.2604839,12.5362667 37.9145161,12.4479333 37.5596774,12.3684333 C37.2030645,12.2907 36.8375806,12.2218 36.4614516,12.1617333 C35.145,11.9497333 33.7025806,11.8490333 32.1572581,11.8490333 L19.1133871,11.8490333 C18.7922581,11.8490333 18.4870968,11.9214667 18.213871,12.0522 C17.6124194,12.3401667 17.1653226,12.9072667 17.0570968,13.6015667 L14.2822581,31.1021667 L14.2024194,31.6127333 C14.3851613,30.4608667 15.3733871,29.6128667 16.546129,29.6128667 L21.4287097,29.6128667 C31.0182258,29.6128667 38.5266129,25.7350333 40.7212903,14.5167 C40.7869355,14.1845667 40.8419355,13.8612667 40.8916129,13.5450333 C40.3362903,13.2517667 39.7348387,13.0009 39.0872581,12.7871333 C38.9275806,12.7341333 38.7625806,12.6829 38.5958065,12.6334333 L38.5958065,12.6334333 Z" id="Shape" fill="#222D65"></path>
                                <path d="M17.0570968,13.6015667 C17.1653226,12.9072667 17.6124194,12.3401667 18.213871,12.0539667 C18.488871,11.9232333 18.7922581,11.8508 19.1133871,11.8508 L32.1572581,11.8508 C33.7025806,11.8508 35.145,11.9515 36.4614516,12.1635 C36.8375806,12.2235667 37.2030645,12.2924667 37.5596774,12.3702 C37.9145161,12.4497 38.2604839,12.5380333 38.5958065,12.6352 C38.7625806,12.6846667 38.9275806,12.7359 39.0890323,12.7871333 C39.7366129,13.0009 40.3380645,13.2535333 40.8933871,13.5450333 C41.5462903,9.39866667 40.8880645,6.57553333 38.6366129,4.01916667 C36.1545161,1.20486667 31.6746774,0 25.9422581,0 L9.30032258,0 C8.12935484,0 7.13048387,0.848 6.94951613,2.00163333 L0.0177419355,45.7531333 C-0.118870968,46.6188 0.551774194,47.3996667 1.42822581,47.3996667 L11.7025806,47.3996667 L14.2822581,31.1021667 L17.0570968,13.6015667 L17.0570968,13.6015667 Z" id="Shape" fill="#253B80"></path>
                            </g>
                            <text id="Donate-with" sketch:type="MSTextLayer" font-family="Verdana" font-size="14" font-style="italic" font-weight="bold" fill="#179BD7">
                                <tspan x="69" y="14">Donate with</tspan>
                            </text>
                        </g>
                    </g>
                </g>
            </g>
        </g>
    </g>
</svg>